<?xml version="1.0" encoding="UTF-8"?>
<svg xmlns="http://www.w3.org/2000/svg" width="1024px" height="1024px" viewBox="0 0 1024 1024" version="1.1">
<g id="surface1">
<path style=" stroke:none;fill-rule:nonzero;fill:rgb(88.235295%,91.37255%,89.019608%);fill-opacity:1;" d="M 213.511719 410.65625 C 207.160156 390.753906 208.269531 367.484375 207.101562 346.871094 C 205.488281 318.238281 198.667969 290.355469 198.746094 261.519531 C 198.792969 242.652344 200.988281 210.691406 211.976562 201.804688 C 227.445312 189.292969 251.355469 195.292969 271.246094 194.503906 C 297.875 193.453125 328.15625 208.898438 353.582031 216.152344 L 354.394531 216.988281 L 354.570312 216.464844 L 365.960938 220.257812 C 369.585938 221.367188 373.027344 222.902344 376.222656 224.800781 C 424.214844 197.132812 478.347656 181.078125 535.003906 180.941406 C 575.574219 180.847656 616.035156 191.019531 654.9375 201.359375 C 713.023438 216.789062 772.464844 252.800781 804.632812 304.800781 C 819.636719 329.050781 827.84375 355.78125 835.324219 382.964844 C 842.871094 421.296875 848.558594 466.074219 839.730469 504.9375 C 813.277344 621.390625 714.625 691.898438 609.90625 733.714844 C 582.023438 744.847656 554.921875 755.289062 525.179688 759.738281 L 509.382812 759.859375 C 509.382812 759.859375 461.816406 759.859375 461.816406 712.371094 C 461.816406 664.875 509.382812 664.875 509.382812 664.875 L 518.441406 664.992188 C 543.277344 662.109375 571.292969 647.761719 594.054688 637.761719 C 661.453125 608.160156 728.503906 561.511719 746.609375 485.492188 C 752.546875 460.5625 747.761719 429.21875 742.734375 404.792969 C 738.0625 387.507812 733.015625 370.261719 723.707031 354.734375 C 697.109375 310.378906 641.910156 296.175781 595.523438 284.917969 C 512.125 264.679688 430.832031 286.480469 369.738281 348.128906 C 304.308594 417.75 292.289062 525.742188 349.304688 604.207031 C 357.066406 614.898438 365.453125 623.753906 374.457031 631.855469 L 376.632812 632.167969 C 400.050781 635.125 418.160156 655.089844 418.160156 679.277344 C 418.160156 692.390625 412.835938 704.261719 404.230469 712.863281 L 393.878906 723.199219 C 341.707031 775.285156 298.164062 832.828125 260.171875 896.046875 C 260.171875 896.046875 235.699219 936.769531 194.910156 912.335938 C 154.121094 887.902344 178.59375 847.179688 178.59375 847.179688 C 212.839844 790.203125 251.320312 737.316406 295.636719 688.511719 C 268.835938 663.003906 247.664062 624.199219 234.976562 590.648438 C 216.214844 540.996094 212.5 483.546875 223.0625 429.230469 C 219.511719 423.1875 215.625 417.289062 213.511719 410.65625 Z M 213.511719 410.65625 "/>
<path style=" stroke:none;fill-rule:nonzero;fill:rgb(88.235295%,91.37255%,89.019608%);fill-opacity:1;" d="M 668.175781 273.324219 C 659.429688 279.394531 647.222656 282.828125 630.417969 278.640625 C 584.269531 267.121094 595.808594 221.046875 595.808594 221.046875 C 598.773438 211.570312 599.410156 201.023438 604.707031 192.621094 C 612.164062 180.78125 623.578125 171.945312 633.175781 161.753906 C 649.199219 144.753906 666.222656 132.183594 685.363281 119.027344 C 691.070312 115.105469 695.972656 109.789062 702.351562 107.089844 C 717.210938 100.785156 732.589844 89.339844 748.464844 92.273438 C 767.007812 95.699219 782.855469 109.914062 795.117188 124.214844 C 802.214844 132.503906 800.84375 145.265625 803.027344 155.945312 C 808.304688 181.710938 807.652344 208.5 807.59375 234.628906 C 807.570312 246.289062 808.160156 260.890625 805.445312 272.417969 C 802.15625 286.425781 804.71875 304.964844 793.402344 313.871094 C 776.441406 327.214844 751.777344 325.304688 730.960938 331.023438 C 718.828125 324.980469 705.363281 321.085938 694.566406 312.910156 C 687.917969 307.878906 684.566406 299.558594 680.105469 292.527344 C 676.078125 286.179688 671.539062 280.015625 668.175781 273.324219 Z M 668.175781 273.324219 "/>
</g>
</svg>
